# xmcd CD database file
#
# Track frame offsets:
#	150
#	13200
#	26510
#	41222
#	55781
#	70483
#	85683
#	99913
#	113270
#	128525
#	142973
#	156854
#	171632
#	187723
#	199356
#	212729
#	225090
#	235930
#	259218
#	272225
#	287479
#	304889
#	315777
#
# Disc length: 4348 seconds
#
# Revision: 0
# Processed by: cddbd v1.5.2PL0 Copyright (c) Steve Scherf et al.
# Submitted via: CDex 1.51
#
DISCID=3410fa17
DTITLE=Louis Armstrong - Louis Armstrong
DYEAR=1999
DGENRE=Jazz
TTITLE0=Heebie Jeebies
TTITLE1=Potato Head Blues
TTITLE2=West End Blues
TTITLE3=Tight Like This
TTITLE4=Mahogany Hall Stomp
TTITLE5=Ain't Misbehavin'
TTITLE6=Black and Blue
TTITLE7=St. Louis Blues
TTITLE8=When It's Sleepy Time Down South
TTITLE9=Blue Again
TTITLE10=Lazy River
TTITLE11=Chinatown, My Chinatown
TTITLE12=Star Dust
TTITLE13=Shadrack
TTITLE14=I Double Dare You
TTITLE15=When the Saints Go Marching In
TTITLE16=Marie
TTITLE17=Rockin' Chair
TTITLE18=Blueberry Hill
TTITLE19=Mack the Knife
TTITLE20=A Fine Romance
TTITLE21=Hello, Dolly!
TTITLE22=What a Wonderful World
EXTD=YEAR: 1999
EXTT0=
EXTT1=
EXTT2=
EXTT3=
EXTT4=
EXTT5=
EXTT6=
EXTT7=
EXTT8=
EXTT9=
EXTT10=
EXTT11=
EXTT12=
EXTT13=
EXTT14=
EXTT15=
EXTT16=
EXTT17=
EXTT18=
EXTT19=
EXTT20=
EXTT21=
EXTT22=
PLAYORDER=
